# xmcd
#
# Track frame offsets: 
#        150
#        16397
#        33632
#        52267
#        70774
#        86417
#        104789
#        123962
#        142283
#        159233
#        177951
#        191840
#        207428
#        223848
#
# Disc length: 3202 seconds
#
# Revision: 2
# Processed by: cddbd v1.5.2PL0 Copyright (c) Steve Scherf et al.
# Submitted via: ExactAudioCopy v0.99pb4
#
DISCID=da0c800e
DTITLE=Lloyd - Lessons In Love
DYEAR=2008
DGENRE=R&B
TTITLE0=Sex Education
TTITLE1=Girls Around The World (Feat. Lil Wayne)
TTITLE2=Treat U Good
TTITLE3=Year Of The Lover
TTITLE4=I Can Change Your Life
TTITLE5=Lose Your Love
TTITLE6=Have My Baby
TTITLE7=Love Making 101
TTITLE8=Party All Over Your Body
TTITLE9=Touched By An Angel
TTITLE10=I'm Wit It
TTITLE11=Heart Attack
TTITLE12=How We Do It (Around My Way) (Feat. Ludacris) (Bonus Track)
TTITLE13=How We Do It (In The UK) (Remix) (Feat. Sway) (Bonus Track)
EXTD=
EXTT0=
EXTT1=
EXTT2=
EXTT3=
EXTT4=
EXTT5=
EXTT6=
EXTT7=
EXTT8=
EXTT9=
EXTT10=
EXTT11=
EXTT12=
EXTT13=
PLAYORDER=
